<?xml version="1.0" standalone="no"?>
<!DOCTYPE svg PUBLIC "-//W3C//DTD SVG 20010904//EN"
 "http://www.w3.org/TR/2001/REC-SVG-20010904/DTD/svg10.dtd">
<svg version="1.0" xmlns="http://www.w3.org/2000/svg"
 width="528.000000pt" height="535.000000pt" viewBox="0 0 528.000000 535.000000"
 preserveAspectRatio="xMidYMid meet">
<metadata>
Created by potrace 1.16, written by Peter Selinger 2001-2019
</metadata>
<g transform="translate(0.000000,535.000000) scale(0.100000,-0.100000)"
fill="#000000" stroke="none">
<path d="M2835 4717 c28 -14 48 -26 45 -27 -30 -9 -126 -9 -183 -1 -104 15
-222 -6 -326 -59 -67 -33 -174 -116 -205 -158 -11 -16 -49 -66 -83 -110 -78
-104 -110 -187 -148 -389 -8 -39 -24 -91 -36 -115 -20 -40 -22 -57 -22 -218 0
-158 12 -354 29 -467 6 -42 6 -43 -20 -43 -62 0 -86 -40 -86 -144 0 -76 -11
-97 -33 -66 -13 19 -16 20 -24 5 -9 -15 -81 -16 -846 -13 l-836 3 -6 -33 c-3
-18 -3 -43 0 -55 5 -18 4 -19 -5 -7 -8 11 -10 -49 -7 -235 5 -267 22 -394 83
-625 87 -328 263 -668 489 -946 83 -102 249 -267 335 -332 41 -31 86 -67 99
-79 13 -11 35 -27 50 -34 14 -7 44 -27 66 -44 85 -66 191 -119 170 -86 -3 5
-1 12 5 16 5 3 10 -2 10 -12 0 -15 4 -14 20 7 l20 25 0 -27 c0 -22 -5 -28 -21
-28 -26 0 -16 -16 14 -22 19 -4 23 -1 20 16 -4 17 1 21 25 22 17 1 38 4 48 8
16 6 15 8 -6 23 l-23 16 22 9 c13 4 25 17 28 28 3 11 10 20 15 20 6 0 8 -7 5
-15 -4 -8 -2 -17 2 -19 4 -3 19 15 31 39 25 48 30 51 48 33 9 -9 12 -9 12 0 0
7 -4 12 -10 12 -5 0 -10 6 -10 14 0 18 -45 48 -66 44 -10 -2 -20 7 -25 21 -8
21 -7 23 17 18 23 -4 25 -2 21 19 -2 13 0 21 4 18 5 -3 9 0 9 5 0 6 7 11 15
11 9 0 15 -9 15 -24 0 -23 3 -24 43 -21 23 2 52 4 65 4 35 1 28 31 -8 31 -17
0 -39 9 -50 20 -19 19 -19 20 3 43 12 13 35 32 50 42 l28 18 -22 15 c-15 10
-24 11 -32 3 -6 -6 -22 -11 -35 -11 -23 0 -23 1 -9 23 14 22 14 22 -27 23 -44
0 -69 -15 -56 -35 4 -7 10 -12 14 -12 28 4 46 -1 46 -14 0 -15 -21 -20 -72
-16 -30 2 -35 -7 -15 -28 10 -11 9 -13 -5 -8 -11 4 -18 -1 -22 -16 -6 -20 -8
-20 -19 -6 -12 16 -67 35 -67 23 0 -4 7 -12 17 -19 14 -11 12 -14 -18 -25 -25
-9 -29 -14 -17 -17 21 -5 22 -13 7 -46 -9 -21 -8 -28 8 -43 24 -23 51 -41 81
-54 25 -11 30 -30 7 -30 -8 0 -15 -8 -15 -19 0 -28 -25 -43 -78 -47 -26 -1
-36 0 -22 2 39 9 43 20 15 42 -23 18 -24 22 -9 30 19 10 11 32 -12 32 -8 0
-14 5 -14 10 0 6 5 10 10 10 25 0 7 17 -20 19 -80 5 -82 6 -50 34 11 9 29 17
40 17 11 0 20 7 20 15 0 8 -4 15 -10 15 -5 0 -10 5 -10 11 0 5 4 8 9 4 10 -6
31 25 31 44 0 18 -18 12 -23 -6 -4 -14 -5 -12 -6 5 -1 13 -8 22 -18 23 -12 1
-9 4 7 8 14 4 31 19 38 34 12 25 18 27 70 27 31 0 62 4 68 8 17 11 14 62 -3
62 -8 0 -11 -5 -7 -11 4 -7 1 -10 -7 -7 -8 3 -14 11 -14 19 0 7 -8 15 -17 17
-13 2 -18 -3 -18 -17 0 -35 -38 -52 -87 -38 -49 13 -54 22 -18 31 13 3 39 19
57 35 26 22 47 29 98 35 64 6 91 18 71 30 -15 10 -14 43 1 52 7 4 28 11 48 14
31 5 35 9 33 33 -2 24 2 27 27 27 16 0 32 5 35 10 3 6 13 10 22 10 9 0 27 12
40 26 13 15 30 23 38 20 9 -3 15 1 15 9 0 8 -5 15 -11 15 -20 0 45 58 95 84
27 14 45 26 41 26 -4 0 0 9 10 20 10 11 26 20 37 20 10 0 18 5 18 11 0 5 5 7
10 4 6 -4 8 -11 5 -16 -3 -5 1 -6 9 -3 9 3 17 10 17 15 1 5 2 13 3 17 2 14 36
44 36 33 0 -6 10 -11 23 -11 31 0 72 -86 63 -133 -3 -17 -1 -39 4 -47 8 -13
11 -12 24 5 14 20 15 19 25 -8 14 -35 14 -57 1 -57 -18 0 -10 -39 10 -50 11
-6 23 -23 26 -38 13 -53 150 -272 171 -272 7 0 13 -4 13 -10 0 -5 18 -21 40
-35 22 -14 56 -41 76 -61 20 -19 43 -33 50 -30 7 3 26 -1 41 -9 15 -7 49 -23
75 -34 26 -12 59 -32 74 -46 31 -29 34 -30 60 -10 25 19 123 10 142 -13 10
-14 16 -14 32 -4 11 7 66 17 122 23 56 5 109 14 119 20 10 5 31 9 48 9 23 0
29 -4 25 -15 -8 -19 10 -19 26 0 7 8 16 13 20 10 5 -3 15 4 22 14 8 11 25 25
39 31 45 19 137 80 178 118 26 24 101 127 101 138 0 3 9 17 19 32 37 50 101
227 101 277 0 28 4 44 10 40 6 -3 10 1 10 10 0 9 -3 14 -8 12 -4 -3 -7 16 -8
41 0 26 -6 70 -12 97 -26 106 -26 117 -7 114 13 -3 18 -16 21 -53 4 -60 10
-66 25 -32 7 15 17 25 23 23 13 -4 41 -57 41 -77 0 -8 10 -17 23 -20 13 -3 23
-9 22 -15 -3 -25 13 -164 20 -175 6 -10 14 -10 39 1 23 10 39 29 56 68 14 29
25 58 25 63 0 11 81 88 92 88 3 0 8 -5 10 -11 2 -5 10 -12 18 -14 63 -14 74
-27 40 -45 -11 -6 -20 -20 -20 -32 0 -12 3 -18 7 -15 3 4 12 2 20 -4 9 -9 13
-8 13 0 0 16 43 31 55 19 7 -6 1 -16 -15 -28 -28 -21 -22 -37 8 -21 15 8 27 7
48 -4 l27 -14 -24 -6 c-13 -3 -42 -4 -64 -3 -34 3 -40 0 -37 -16 2 -10 -2 -22
-9 -27 -17 -10 -1 -47 52 -115 21 -28 39 -54 39 -57 0 -4 9 -16 20 -27 11 -11
20 -32 20 -47 0 -20 10 -36 34 -55 19 -15 36 -38 38 -50 3 -21 4 -21 21 -4 17
17 16 19 -9 49 -30 38 -184 271 -184 281 0 3 8 6 18 6 13 0 14 2 3 9 -10 7
-11 10 -1 16 8 5 18 1 25 -8 14 -19 45 -23 45 -6 0 11 73 8 152 -6 41 -8 42
-25 2 -25 -26 0 -33 -17 -9 -26 20 -8 19 -24 -1 -24 -9 0 -14 -7 -12 -18 2
-11 13 -17 33 -18 17 0 35 -2 40 -4 13 -4 63 9 96 26 33 16 184 241 247 369
117 235 167 381 222 635 48 229 61 521 34 775 -3 28 -6 55 -6 62 -1 7 -5 10
-10 7 -4 -3 -6 -24 -3 -47 5 -42 5 -42 -5 -7 -5 19 -7 43 -4 53 9 29 -6 19
-17 -12 -9 -26 -16 -29 -70 -35 -32 -4 -277 -6 -544 -5 l-485 1 -1 22 c0 20
-1 20 -10 -3 -7 -18 -13 -21 -21 -13 -7 7 -7 19 1 43 6 17 11 49 11 70 0 21 5
41 10 44 8 5 8 11 0 20 -6 7 -10 17 -9 21 6 34 -42 84 -81 84 l-25 0 1 218 c1
266 -9 359 -43 432 -29 63 -45 121 -45 165 0 17 1 81 2 144 2 102 0 116 -19
140 -12 14 -34 48 -49 74 -15 27 -49 77 -75 113 -26 35 -43 64 -37 64 22 0 8
21 -31 45 -55 36 -171 64 -273 66 -65 2 -83 6 -79 16 7 18 -7 16 -62 -7 -26
-11 -57 -20 -70 -20 -26 0 -50 24 -40 40 9 14 -7 13 -30 -3 -28 -19 -151 -6
-203 21 -22 11 -58 24 -79 27 l-38 6 50 -24z m-169 -847 c18 -6 51 -10 71 -9
43 3 83 -8 83 -22 0 -15 27 -10 34 6 6 17 66 21 66 5 0 -5 9 -10 19 -10 10 0
22 -7 25 -15 3 -9 11 -15 18 -14 23 5 58 -12 58 -27 0 -8 9 -14 20 -14 11 0
20 5 20 10 0 6 25 -4 55 -21 30 -17 62 -29 69 -26 20 8 88 -81 80 -105 -4 -13
0 -18 13 -18 10 0 33 -16 50 -35 18 -19 37 -35 43 -35 5 0 12 -11 16 -25 4
-15 13 -25 24 -25 11 0 22 -4 25 -10 3 -5 15 -10 25 -10 11 0 24 -9 30 -20 8
-15 6 -21 -9 -30 -11 -5 -25 -10 -31 -10 -6 0 -21 -9 -32 -20 -12 -11 -40 -25
-63 -30 -97 -24 -173 -83 -201 -155 -28 -74 -4 -91 81 -60 22 8 53 14 69 15
24 0 27 -2 16 -15 -7 -8 -21 -15 -32 -15 -12 0 -23 -10 -29 -28 -5 -15 -23
-36 -39 -46 -32 -18 -33 -21 -30 -76 2 -63 9 -73 41 -66 23 4 29 2 29 -11 0
-9 3 -14 6 -10 3 3 14 -2 24 -10 20 -17 121 -55 128 -48 3 2 -6 13 -19 24 -13
11 -21 22 -18 25 3 3 36 3 74 -1 48 -4 73 -12 84 -25 8 -10 25 -18 36 -18 33
0 92 -24 88 -36 -2 -6 3 -17 12 -24 8 -7 15 -19 15 -26 0 -8 5 -14 10 -14 6 0
10 -13 10 -29 0 -51 17 -83 40 -76 16 5 20 2 20 -19 0 -16 -6 -26 -15 -26 -8
0 -15 -7 -15 -16 0 -8 4 -13 9 -10 5 3 14 0 20 -7 10 -13 5 -66 -24 -213 -3
-11 -16 -26 -30 -32 -14 -6 -25 -18 -25 -27 0 -8 -4 -15 -10 -15 -5 0 -10 -11
-10 -25 0 -15 -6 -25 -14 -25 -21 0 -30 -19 -16 -34 8 -11 6 -23 -9 -50 -12
-20 -17 -36 -13 -36 4 0 -1 -7 -11 -14 -16 -12 -17 -18 -6 -37 10 -20 9 -25
-10 -37 -13 -9 -21 -25 -21 -43 0 -38 -24 -38 -47 1 -9 17 -20 30 -24 30 -4 0
-10 -14 -14 -30 -4 -17 -10 -30 -14 -30 -4 0 -12 -19 -18 -43 -8 -30 -20 -47
-37 -55 -15 -6 -26 -18 -26 -27 0 -10 -10 -15 -30 -15 -16 0 -30 -4 -30 -10 0
-5 -9 -10 -20 -10 -11 0 -41 -13 -66 -28 -41 -26 -43 -30 -28 -42 21 -19 184
-21 184 -3 0 6 -4 14 -10 18 -15 9 31 55 57 55 13 0 23 -2 23 -5 0 -11 -33
-70 -45 -80 -6 -5 -31 -36 -55 -68 -23 -32 -55 -66 -69 -76 -33 -23 -87 -36
-95 -22 -5 7 -15 7 -33 0 -17 -6 -37 -6 -57 0 -35 11 -128 0 -108 -12 6 -5 12
-15 12 -24 0 -14 -10 -15 -67 -9 -74 7 -145 28 -151 44 -2 6 -9 9 -15 7 -15
-5 -50 23 -60 48 -4 11 -2 17 8 17 8 0 15 9 15 19 0 14 11 23 38 32 20 6 46
18 57 25 11 8 28 14 38 14 10 0 37 9 60 20 23 12 82 28 132 36 106 19 120 25
140 64 9 17 19 30 23 30 4 0 24 21 44 48 62 80 76 92 112 92 71 0 96 71 57
163 -24 56 -32 61 -103 63 -51 2 -58 0 -58 -17 0 -15 7 -19 38 -19 47 0 55 -6
41 -32 -8 -16 -18 -19 -42 -14 -18 3 -59 9 -92 15 -33 5 -72 12 -87 16 -35 9
-62 0 -51 -17 8 -13 9 -18 12 -38 0 -6 35 -10 81 -10 64 0 80 -3 80 -15 0 -21
-81 -94 -105 -95 -11 0 -28 -7 -38 -14 -9 -7 -28 -11 -42 -8 -15 2 -25 0 -25
-7 0 -6 6 -11 13 -12 6 0 32 -3 55 -5 30 -4 51 0 67 10 40 27 36 2 -7 -45 -79
-84 -128 -106 -179 -79 -15 8 -23 7 -35 -5 -21 -20 -42 -19 -82 5 -18 11 -41
20 -52 20 -19 0 -90 57 -90 72 0 13 15 9 36 -11 18 -16 24 -17 45 -5 13 7 34
13 46 14 12 0 34 5 49 10 21 8 25 13 15 23 -8 8 -19 8 -40 0 -24 -8 -34 -8
-51 4 -16 12 -24 12 -35 3 -18 -15 -42 1 -56 38 -5 14 -16 22 -26 20 -12 -2
-18 3 -18 17 0 16 7 20 37 20 20 0 40 3 44 8 4 4 28 7 53 8 161 2 208 49 77
79 -35 8 -55 7 -86 -4 -67 -23 -58 3 16 51 35 22 -2 32 -60 16 -67 -19 -69
-19 -154 -34 -40 -7 -75 -16 -78 -21 -3 -4 -12 -8 -21 -8 -12 0 -13 3 -4 14 8
10 9 16 1 21 -5 3 -10 1 -10 -4 0 -6 -5 -11 -10 -11 -7 0 -7 7 1 21 14 27 -1
45 -27 31 -20 -11 -50 2 -71 29 -7 9 -24 20 -38 23 -14 4 -25 12 -25 20 0 7
-16 24 -35 37 -19 13 -35 32 -35 41 0 9 -4 19 -8 22 -5 3 -9 21 -10 41 -1 20
-4 40 -7 44 -2 5 2 14 10 21 18 15 20 46 3 53 -7 3 -5 6 6 6 17 1 18 7 13 52
-6 45 -4 52 13 56 11 3 20 14 20 24 0 12 10 21 28 25 15 4 32 10 37 14 6 4 24
11 41 14 19 4 34 15 37 25 3 12 14 19 31 19 15 0 36 8 47 18 10 11 28 27 38
37 10 10 25 15 34 11 10 -3 17 -1 17 5 0 6 -7 11 -16 11 -9 0 -14 6 -11 13 2
6 12 11 21 9 10 -2 24 2 32 9 7 6 21 9 29 5 23 -8 29 19 12 51 -9 15 -18 36
-21 46 -3 9 -15 17 -26 17 -11 0 -20 3 -20 8 0 13 -72 39 -129 47 -45 6 -51 9
-36 18 13 7 33 6 65 -2 26 -7 66 -12 89 -13 22 0 41 -4 41 -9 0 -5 10 -11 23
-14 38 -10 57 -65 57 -165 0 -49 5 -92 10 -95 6 -4 3 -15 -7 -30 -10 -12 -22
-21 -27 -18 -5 3 -6 0 -4 -8 3 -8 -5 -30 -16 -49 -81 -134 -81 -191 0 -285 44
-50 51 -55 90 -55 50 0 76 23 45 39 -11 6 -31 11 -44 11 -13 0 -36 9 -51 21
-23 18 -26 28 -26 77 0 50 4 62 29 90 19 20 39 32 56 32 22 0 30 8 47 48 12
26 22 67 23 92 1 26 11 61 23 82 12 21 20 43 18 50 -3 7 -7 26 -10 41 -4 17
-16 31 -31 37 -14 5 -25 18 -25 28 0 10 -9 27 -20 37 -12 10 -18 25 -16 32 3
7 -3 18 -12 25 -9 7 -23 31 -31 53 -28 84 -42 104 -87 125 -24 12 -44 26 -44
31 0 5 -34 25 -75 44 -41 20 -75 39 -75 43 -1 4 -3 31 -6 60 -5 44 -2 57 18
82 78 99 75 89 53 196 -5 21 -2 34 9 43 19 16 10 41 -15 41 -19 0 -26 24 -10
35 5 3 12 18 16 35 4 19 13 30 28 32 12 2 23 -2 25 -9 2 -6 19 -17 38 -23z
m230 -2968 c17 -11 54 -75 54 -94 0 -10 14 -21 38 -29 20 -7 31 -14 25 -16
-18 -6 -16 -33 2 -33 8 0 15 -4 15 -10 0 -5 7 -10 15 -10 20 0 19 10 -2 26
-16 12 -15 13 10 14 15 0 27 -5 27 -11 0 -5 5 -7 10 -4 6 3 10 2 10 -3 0 -5
20 -16 44 -24 44 -15 160 -9 189 9 7 4 25 8 41 9 23 2 26 0 15 -11 -43 -42
-277 -80 -326 -54 -20 11 -26 11 -33 0 -17 -29 -294 13 -370 55 -14 8 -38 24
-55 34 -16 11 -38 23 -48 26 -12 5 -17 15 -15 32 4 32 56 51 74 27 12 -16 94
-22 94 -7 0 5 18 15 40 22 23 8 44 18 48 25 16 25 76 42 98 27z"/>
<path d="M3170 2928 c0 -26 -21 -33 -36 -13 -12 16 -18 17 -40 6 -23 -10 -25
-16 -21 -49 9 -68 18 -93 40 -115 12 -12 27 -35 32 -52 8 -22 20 -33 49 -43
21 -7 41 -10 44 -8 4 5 -27 63 -48 89 -69 85 -74 97 -35 97 35 0 48 30 30 72
-8 18 -14 25 -15 16z"/>
<path d="M1895 1050 c-27 -23 -57 -40 -71 -40 -28 0 -32 -24 -6 -39 11 -7 13
-13 7 -18 -22 -16 -10 -38 23 -41 17 -2 32 -7 32 -13 0 -5 4 -9 9 -9 5 0 9 12
9 26 0 26 44 73 68 74 11 0 24 22 24 40 0 4 -9 10 -21 13 -16 4 -19 11 -14 26
10 31 -9 26 -60 -19z"/>
<path d="M1725 871 c-9 -15 12 -22 41 -15 20 5 26 3 22 -7 -2 -8 -18 -16 -34
-17 -16 -2 -46 -17 -67 -32 -38 -28 -38 -29 -17 -40 12 -6 29 -9 38 -5 16 6
15 7 -1 17 -17 9 -17 11 8 24 45 23 56 19 43 -18 -6 -18 -18 -39 -26 -45 -10
-8 -11 -13 -4 -13 18 0 14 -52 -7 -79 -11 -14 -33 -26 -57 -30 -26 -4 -40 -12
-42 -24 -3 -15 2 -17 37 -11 47 7 50 2 25 -54 -9 -21 -22 -52 -30 -70 -8 -18
-14 -39 -14 -48 0 -8 -7 -17 -16 -21 -8 -3 -13 -11 -10 -18 2 -7 1 -29 -4 -49
-6 -30 -5 -38 9 -46 20 -10 41 4 41 28 0 7 5 10 12 6 8 -5 9 -2 5 9 -3 10 -2
17 3 17 6 0 10 18 10 40 0 30 5 42 21 51 14 7 19 17 16 30 -4 15 0 19 23 19
34 0 37 4 42 50 3 29 0 35 -22 41 -26 6 -24 8 25 24 8 2 15 15 15 29 0 20 4
23 23 19 22 -5 22 -5 2 10 -29 23 -35 21 -35 -13 0 -16 -4 -30 -10 -30 -5 0
-10 18 -10 39 0 22 5 43 10 46 6 3 10 13 10 22 0 8 11 24 24 34 26 20 26 54
-1 75 -11 10 -10 12 7 17 27 7 25 29 -2 26 -13 -2 -27 -1 -33 2 -21 13 -64 19
-70 10z"/>
</g>
</svg>
